<?xml version="1.0" encoding="utf-8"?>
<!-- Uploaded to: SVG Repo, www.svgrepo.com, Generator: SVG Repo Mixer Tools -->
<svg width="800px" height="800px" viewBox="0 0 1024 1024" fill="#000000" class="icon"  version="1.1" xmlns="http://www.w3.org/2000/svg"><path d="M798.59712 10.24H177.2544v67.11296H137.87136V1013.76h603.83232a69.91872 69.91872 0 0 0 58.90048-32.33792 87.38816 87.38816 0 0 0 85.504-87.30624V97.71008A87.57248 87.57248 0 0 0 798.59712 10.24zM376.27904 548.49536h88.24832v123.33056c-37.74464-7.3728-70.0416-55.02976-88.24832-123.33056z m36.70016 116.57216a251.65824 251.65824 0 0 1-155.01312-116.55168h96.64512c12.71808 50.85184 32.99328 91.46368 58.368 116.55168z m-41.6768-137.13408a511.34464 511.34464 0 0 1-10.56768-95.98976h103.75168v95.98976h-93.184z m-10.50624-116.59264a511.3856 511.3856 0 0 1 10.56768-96.01024h93.20448v96.01024h-103.77216z m15.48288-116.57216c18.20672-68.3008 50.54464-116.0192 88.24832-123.392v123.392h-88.24832z m-21.68832 0h-96.64512a251.86304 251.86304 0 0 1 155.01312-116.61312c-25.35424 25.21088-45.62944 65.7408-58.368 116.61312z m-4.62848 20.54144a542.45376 542.45376 0 0 0-9.76896 95.98976h-116.24448a248.70912 248.70912 0 0 1 23.28576-95.98976h102.72768z m-9.78944 116.57216c0.59392 34.28352 3.8912 66.60096 9.74848 96.01024h-102.74816a249.26208 249.26208 0 0 1-23.28576-96.01024h116.28544z m-8.45824 431.53408c-2.68288 3.2768-7.12704 5.79584-13.29152 7.5776-6.2464 1.78176-12.71808 2.6624-19.47648 2.6624h-37.9904v41.984H235.9296v-130.17088h56.97536c10.21952 0 18.96448 0.94208 26.25536 2.88768 7.2704 1.92512 12.65664 6.16448 16.09728 12.75904 3.09248 7.24992 4.68992 16.77312 4.68992 28.4672-0.08192 15.9744-2.80576 27.25888-8.23296 33.83296z m111.90272 52.224l-8.27392-24.53504h-56.44288l-8.35584 24.53504h-25.84576l29.83936-90.3168 13.55776-39.91552h36.61824l44.42112 130.23232h-25.51808z m133.12-18.45248c-2.048 5.61152-5.05856 9.85088-8.97024 12.71808-6.08256 4.52608-18.51392 6.77888-37.31456 6.77888h-9.40032c-8.33536 0-15.52384-0.512-21.56544-1.37216a30.0032 30.0032 0 0 1-15.36-6.7584 24.576 24.576 0 0 1-6.84032-9.23648 34.95936 34.95936 0 0 1-2.62144-10.69056 166.05184 166.05184 0 0 1-0.49152-14.31552h24.86272a16.4864 16.4864 0 0 1-0.32768 3.66592c0.18432 3.9936 0.53248 7.00416 1.024 9.09312a9.0112 9.0112 0 0 0 2.94912 5.07904c1.67936 1.57696 3.8912 2.60096 6.63552 3.11296 2.80576 0.53248 6.69696 0.86016 11.75552 1.06496 2.43712 0 4.21888 0.14336 5.38624 0.38912 6.32832-0.32768 11.10016-0.65536 14.35648-1.04448a21.0944 21.0944 0 0 0 8.00768-2.41664c3.8912-2.31424 5.79584-7.82336 5.79584-16.30208 0-6.02112-1.20832-10.32192-3.66592-12.9024a11.18208 11.18208 0 0 0-3.42016-2.08896 22.2208 22.2208 0 0 0-4.15744-1.10592c-1.35168-0.12288-3.13344-0.34816-5.26336-0.47104-2.12992-0.12288-4.58752-0.3072-7.24992-0.43008-4.66944-0.2048-9.03168-0.34816-13.12768-0.6144a135.35232 135.35232 0 0 1-11.69408-0.88064 62.464 62.464 0 0 1-11.01824-2.41664 30.69952 30.69952 0 0 1-9.13408-4.52608c-6.81984-5.0176-10.50624-14.49984-10.9568-28.48768 0-14.62272 3.29728-24.82176 9.87136-30.59712 6.8608-5.4272 19.80416-8.15104 38.912-8.15104 11.61216 0 19.80416 0.3072 24.7808 0.73728 8.00768 1.04448 14.09024 3.29728 18.26816 6.77888 4.38272 3.56352 7.18848 7.80288 8.33536 12.86144 1.29024 5.05856 1.92512 11.34592 1.92512 19.06688h-25.16992v-5.26336c0-4.85376-0.8192-8.192-2.60096-10.0352-2.06848-2.33472-7.24992-3.50208-15.5648-3.50208h-10.26048c-9.91232 0-16.32256 1.10592-19.2512 3.50208a9.78944 9.78944 0 0 0-3.35872 4.64896 27.8528 27.8528 0 0 0-1.024 8.54016c0.22528 4.32128 0.59392 7.45472 1.14688 9.37984a7.168 7.168 0 0 0 3.8912 4.54656c1.69984 0.9216 3.7888 1.6384 6.32832 2.12992 2.49856 0.512 5.44768 0.8192 8.84736 1.10592l9.68704 0.63488c10.32192 0.67584 18.86208 1.4336 25.51808 2.43712 6.63552 1.024 11.83744 2.80576 15.31904 5.5296 2.19136 1.72032 3.8912 3.80928 5.14048 6.2464 1.2288 2.4576 2.17088 5.0176 2.72384 7.68 0.512 2.64192 0.86016 4.99712 1.00352 6.88128l0.43008 9.78944c0 7.24992-1.024 13.59872-3.09248 19.21024zM536.61696 178.15552a251.41248 251.41248 0 0 1 154.97216 116.61312h-96.60416c-12.61568-50.87232-32.95232-91.40224-58.368-116.61312z m154.99264 370.33984a251.35104 251.35104 0 0 1-154.97216 116.55168c25.41568-25.16992 45.73184-65.69984 58.38848-116.55168h96.58368z m-118.21056-253.72672h-88.2688V171.37664c37.72416 7.39328 70.00064 55.0912 88.2688 123.392z m4.9152 20.54144c6.26688 29.3888 9.97376 61.78816 10.60864 95.98976h-103.77216v-95.98976h93.16352z m10.52672 116.57216a509.37856 509.37856 0 0 1-10.60864 96.01024h-93.16352v-96.01024h103.77216z m-15.44192 116.61312c-18.26816 68.3008-50.54464 115.95776-88.2688 123.33056v-123.33056h88.2688z m120.32 348.69248c-2.08896 5.61152-5.07904 9.85088-8.94976 12.71808-6.10304 4.52608-18.5344 6.77888-37.33504 6.77888h-9.35936c-8.33536 0-15.52384-0.512-21.62688-1.37216a30.3104 30.3104 0 0 1-15.38048-6.7584 24.9856 24.9856 0 0 1-6.7584-9.23648 37.60128 37.60128 0 0 1-2.68288-10.69056 199.31136 199.31136 0 0 1-0.45056-14.31552h24.8832a14.2336 14.2336 0 0 1-0.34816 3.66592c0.14336 3.9936 0.53248 7.00416 1.024 9.09312a8.8064 8.8064 0 0 0 2.94912 5.07904c1.6384 1.57696 3.85024 2.60096 6.63552 3.11296a83.968 83.968 0 0 0 11.6736 1.06496c2.43712 0 4.23936 0.14336 5.38624 0.38912 6.38976-0.32768 11.10016-0.65536 14.336-1.04448 3.15392-0.34816 5.87776-1.2288 8.04864-2.41664 3.80928-2.31424 5.7344-7.82336 5.7344-16.30208 0-6.02112-1.2288-10.32192-3.62496-12.9024a11.18208 11.18208 0 0 0-3.42016-2.08896 26.13248 26.13248 0 0 0-4.15744-1.10592c-1.37216-0.12288-3.21536-0.34816-5.34528-0.47104-2.12992-0.12288-4.52608-0.3072-7.24992-0.43008-4.58752-0.2048-8.97024-0.34816-13.06624-0.6144a135.9872 135.9872 0 0 1-11.69408-0.88064 64.8192 64.8192 0 0 1-10.99776-2.41664 29.696 29.696 0 0 1-9.09312-4.52608c-6.90176-5.0176-10.52672-14.49984-10.97728-28.48768 0-14.62272 3.29728-24.82176 9.87136-30.59712 6.84032-5.4272 19.84512-8.15104 38.912-8.15104 11.53024 0 19.82464 0.3072 24.80128 0.73728 8.00768 1.04448 14.09024 3.29728 18.26816 6.77888 4.32128 3.56352 7.12704 7.80288 8.33536 12.86144 1.29024 5.0176 1.92512 11.34592 1.92512 19.06688h-25.21088v-5.26336c0-4.85376-0.8192-8.192-2.53952-10.0352-2.048-2.33472-7.24992-3.50208-15.6672-3.50208h-10.26048c-9.89184 0-16.34304 1.10592-19.27168 3.50208a9.76896 9.76896 0 0 0-3.33824 4.64896c-0.7168 1.92512-0.96256 4.77184-0.96256 8.54016 0.2048 4.32128 0.53248 7.45472 1.10592 9.37984 0.49152 1.9456 1.8432 3.44064 3.8912 4.54656 1.69984 0.9216 3.7888 1.6384 6.28736 2.12992 2.53952 0.512 5.48864 0.8192 8.9088 1.10592l9.64608 0.63488c10.32192 0.67584 18.82112 1.4336 25.51808 2.43712 6.67648 1.024 11.83744 2.80576 15.36 5.5296 2.21184 1.72032 3.8912 3.80928 5.12 6.2464 1.24928 2.4576 2.19136 5.0176 2.68288 7.68 0.53248 2.64192 0.83968 4.99712 1.024 6.88128l0.4096 9.78944c0.1024 7.24992-0.90112 13.59872-2.9696 19.21024z m8.704-369.2544h-102.8096c5.87776-29.36832 9.19552-61.7472 9.78944-95.98976h116.18304a248.32 248.32 0 0 1-23.16288 95.98976z m-92.99968-116.59264a546.54976 546.54976 0 0 0-9.70752-96.01024h102.76864a248.95488 248.95488 0 0 1 23.2448 96.01024h-116.30592z m241.70496 482.77504a52.49024 52.49024 0 0 1-39.46496 50.72896c0-0.4096 0.08192-0.75776 0.08192-1.10592V147.3536a70.0416 70.0416 0 0 0-70.02112-70.00064H212.25472V45.24032h586.3424a52.5312 52.5312 0 0 1 52.51072 52.51072v796.3648z m-444.12928-89.72288l22.4256 67.85024h-44.9536l22.4256-67.85024h0.1024z m-94.55616 8.76544c1.8432 3.42016 2.74432 9.15456 2.74432 17.36704-0.2048 5.81632-0.55296 9.80992-1.00352 12.04224a11.22304 11.22304 0 0 1-4.17792 6.22592c-2.39616 2.31424-8.25344 3.56352-17.48992 3.56352H260.9152v-45.54752h32.256c5.61152 0 9.87136 0.53248 12.77952 1.4336a11.8784 11.8784 0 0 1 6.49216 4.9152z" /></svg>